<mxfile host="app.diagrams.net" agent="Mozilla/5.0 (Windows NT 10.0; Win64; x64) AppleWebKit/537.36 (KHTML, like Gecko) Chrome/136.0.0.0 Safari/537.36" version="27.0.3">
  <diagram name="Page-1" id="xuLhn1TUnxaLRDmzbT8B">
    <mxGraphModel dx="2253" dy="777" grid="1" gridSize="10" guides="1" tooltips="1" connect="1" arrows="1" fold="1" page="1" pageScale="1" pageWidth="827" pageHeight="1169" math="0" shadow="0">
      <root>
        <mxCell id="0" />
        <mxCell id="1" parent="0" />
        <mxCell id="DwJEW_S9SDC5LWlabyUA-3" style="edgeStyle=orthogonalEdgeStyle;rounded=0;orthogonalLoop=1;jettySize=auto;html=1;exitX=0.5;exitY=1;exitDx=0;exitDy=0;entryX=0.5;entryY=0;entryDx=0;entryDy=0;" edge="1" parent="1" source="DwJEW_S9SDC5LWlabyUA-1" target="DwJEW_S9SDC5LWlabyUA-2">
          <mxGeometry relative="1" as="geometry" />
        </mxCell>
        <mxCell id="DwJEW_S9SDC5LWlabyUA-5" style="edgeStyle=orthogonalEdgeStyle;rounded=0;orthogonalLoop=1;jettySize=auto;html=1;exitX=0.5;exitY=1;exitDx=0;exitDy=0;entryX=0.5;entryY=0;entryDx=0;entryDy=0;" edge="1" parent="1" source="DwJEW_S9SDC5LWlabyUA-1" target="DwJEW_S9SDC5LWlabyUA-4">
          <mxGeometry relative="1" as="geometry" />
        </mxCell>
        <mxCell id="DwJEW_S9SDC5LWlabyUA-11" style="edgeStyle=orthogonalEdgeStyle;rounded=0;orthogonalLoop=1;jettySize=auto;html=1;exitX=0.5;exitY=1;exitDx=0;exitDy=0;entryX=0.5;entryY=0;entryDx=0;entryDy=0;" edge="1" parent="1" source="DwJEW_S9SDC5LWlabyUA-1" target="DwJEW_S9SDC5LWlabyUA-9">
          <mxGeometry relative="1" as="geometry" />
        </mxCell>
        <mxCell id="DwJEW_S9SDC5LWlabyUA-15" style="edgeStyle=orthogonalEdgeStyle;rounded=0;orthogonalLoop=1;jettySize=auto;html=1;exitX=0.5;exitY=1;exitDx=0;exitDy=0;entryX=0.5;entryY=0;entryDx=0;entryDy=0;" edge="1" parent="1" source="DwJEW_S9SDC5LWlabyUA-1" target="DwJEW_S9SDC5LWlabyUA-14">
          <mxGeometry relative="1" as="geometry" />
        </mxCell>
        <mxCell id="DwJEW_S9SDC5LWlabyUA-1" value="ANIMALS" style="rounded=0;whiteSpace=wrap;html=1;" vertex="1" parent="1">
          <mxGeometry x="354" y="100" width="120" height="60" as="geometry" />
        </mxCell>
        <mxCell id="DwJEW_S9SDC5LWlabyUA-2" value="OWNERSHIP STATE" style="rounded=0;whiteSpace=wrap;html=1;" vertex="1" parent="1">
          <mxGeometry x="354" y="220" width="120" height="60" as="geometry" />
        </mxCell>
        <mxCell id="DwJEW_S9SDC5LWlabyUA-7" style="edgeStyle=orthogonalEdgeStyle;rounded=0;orthogonalLoop=1;jettySize=auto;html=1;exitX=0.5;exitY=1;exitDx=0;exitDy=0;entryX=0.5;entryY=0;entryDx=0;entryDy=0;" edge="1" parent="1" source="DwJEW_S9SDC5LWlabyUA-4" target="DwJEW_S9SDC5LWlabyUA-6">
          <mxGeometry relative="1" as="geometry" />
        </mxCell>
        <mxCell id="DwJEW_S9SDC5LWlabyUA-10" style="edgeStyle=orthogonalEdgeStyle;rounded=0;orthogonalLoop=1;jettySize=auto;html=1;exitX=0.5;exitY=1;exitDx=0;exitDy=0;entryX=0.5;entryY=0;entryDx=0;entryDy=0;" edge="1" parent="1" source="DwJEW_S9SDC5LWlabyUA-4" target="DwJEW_S9SDC5LWlabyUA-8">
          <mxGeometry relative="1" as="geometry" />
        </mxCell>
        <mxCell id="DwJEW_S9SDC5LWlabyUA-4" value="UPGRADE LEVEL" style="rounded=0;whiteSpace=wrap;html=1;" vertex="1" parent="1">
          <mxGeometry x="560" y="220" width="120" height="60" as="geometry" />
        </mxCell>
        <mxCell id="DwJEW_S9SDC5LWlabyUA-6" value="UPGRADE COST" style="rounded=0;whiteSpace=wrap;html=1;" vertex="1" parent="1">
          <mxGeometry x="500" y="340" width="120" height="60" as="geometry" />
        </mxCell>
        <mxCell id="DwJEW_S9SDC5LWlabyUA-8" value="LEVEL CAP" style="rounded=0;whiteSpace=wrap;html=1;" vertex="1" parent="1">
          <mxGeometry x="620" y="340" width="120" height="60" as="geometry" />
        </mxCell>
        <mxCell id="DwJEW_S9SDC5LWlabyUA-13" style="edgeStyle=orthogonalEdgeStyle;rounded=0;orthogonalLoop=1;jettySize=auto;html=1;exitX=0.5;exitY=1;exitDx=0;exitDy=0;entryX=0.5;entryY=0;entryDx=0;entryDy=0;" edge="1" parent="1" source="DwJEW_S9SDC5LWlabyUA-9" target="DwJEW_S9SDC5LWlabyUA-12">
          <mxGeometry relative="1" as="geometry" />
        </mxCell>
        <mxCell id="DwJEW_S9SDC5LWlabyUA-9" value="SPACE FOR ANIMAL" style="rounded=0;whiteSpace=wrap;html=1;" vertex="1" parent="1">
          <mxGeometry x="140" y="220" width="120" height="60" as="geometry" />
        </mxCell>
        <mxCell id="DwJEW_S9SDC5LWlabyUA-12" value="COST FOR PURCHASE OR RENT" style="rounded=0;whiteSpace=wrap;html=1;" vertex="1" parent="1">
          <mxGeometry x="140" y="340" width="120" height="60" as="geometry" />
        </mxCell>
        <mxCell id="DwJEW_S9SDC5LWlabyUA-14" value="GIVE INFORMATION ON COST // PAYMENT IF LANDED ON // OWNERSHIP" style="rounded=0;whiteSpace=wrap;html=1;" vertex="1" parent="1">
          <mxGeometry x="-80" y="220" width="120" height="70" as="geometry" />
        </mxCell>
      </root>
    </mxGraphModel>
  </diagram>
</mxfile>
